<?xml version="1.0" standalone="no"?>
<!DOCTYPE svg PUBLIC "-//W3C//DTD SVG 20010904//EN"
 "http://www.w3.org/TR/2001/REC-SVG-20010904/DTD/svg10.dtd">
<svg version="1.0" xmlns="http://www.w3.org/2000/svg"
 width="225.000000pt" height="225.000000pt" viewBox="0 0 225.000000 225.000000"
 preserveAspectRatio="xMidYMid meet">

<g transform="translate(0.000000,225.000000) scale(0.100000,-0.100000)"
fill="#000000" stroke="none">
<path d="M570 1688 c-11 -18 -20 -49 -20 -68 0 -34 -7 -41 -105 -118 -73 -56
-123 -87 -161 -99 -35 -11 -65 -28 -81 -47 -23 -27 -24 -34 -18 -100 16 -174
22 -179 209 -186 l141 -5 83 -135 83 -135 -6 -123 c-3 -68 -8 -156 -12 -196
-7 -92 4 -106 85 -106 31 0 63 4 71 9 8 5 48 71 91 147 47 86 82 138 90 136
35 -8 225 -2 280 9 57 11 63 10 88 -8 25 -19 28 -27 38 -143 12 -141 18 -150
96 -150 54 0 67 13 89 90 l13 45 6 -58 c3 -35 11 -62 20 -67 18 -12 120 -13
138 -2 12 8 43 112 120 402 27 102 31 136 37 300 7 232 15 321 26 314 5 -3 9
-126 9 -275 l0 -269 25 -12 c21 -9 28 -8 45 7 19 17 20 31 20 289 0 244 -2
275 -18 305 -20 37 -73 71 -110 71 -13 0 -35 14 -53 34 -16 19 -50 44 -74 56
-42 20 -58 21 -565 24 l-521 3 -48 47 c-56 56 -83 59 -111 14z m365 -216 c39
-107 84 -160 185 -213 39 -21 58 -24 150 -24 91 0 111 3 150 24 102 54 155
116 191 225 l16 51 66 -1 c75 -2 112 -19 146 -70 l24 -34 -7 -257 -8 -256 -54
-198 c-30 -109 -59 -209 -64 -221 l-9 -23 0 25 c-1 14 -6 99 -11 190 -12 187
-13 190 -90 190 -72 0 -161 49 -212 116 -46 61 -80 72 -100 30 -9 -21 -6 -32
15 -69 25 -42 65 -83 105 -107 15 -9 15 -12 -8 -29 -31 -25 -137 -58 -210 -66
-30 -3 -97 -1 -149 5 -68 8 -97 7 -107 -1 -7 -6 -48 -73 -89 -150 -42 -76 -80
-139 -85 -139 -4 0 -6 17 -4 38 2 20 9 97 14 171 l10 133 -84 137 -83 136 37
26 c27 19 43 42 59 86 24 65 21 90 -15 99 -32 8 -48 -6 -69 -61 -25 -67 -47
-75 -214 -75 l-140 0 -6 48 c-3 26 -8 59 -10 74 -4 25 0 28 59 48 45 15 93 44
165 99 99 77 103 79 129 65 49 -25 117 -12 152 31 10 12 28 15 73 13 l59 -3
23 -63z m656 -682 c14 0 19 -7 19 -29 0 -25 -6 -31 -35 -41 -31 -10 -85 -7
-108 7 -11 7 76 72 91 67 8 -2 22 -4 33 -4z m-34 -184 c-3 -8 -11 -34 -18 -58
l-12 -43 -8 30 c-3 17 -7 42 -8 58 -1 23 3 27 25 27 19 0 25 -4 21 -14z"/>
<path d="M904 1170 c-31 -12 -72 -66 -80 -104 -9 -49 25 -120 68 -142 123 -63
251 58 192 182 -29 61 -113 91 -180 64z"/>
</g>
</svg>
